<svg width="56" height="47" viewBox="0 0 56 47" fill="none" xmlns="http://www.w3.org/2000/svg">
<g clip-path="url(#clip0_39_223)">
<path d="M23.4603 2.08096C26.8073 0.6701 30.4909 0.0931639 34.1133 0.340668C37.6594 0.606283 41.1457 1.67564 44.2089 3.48061C46.9544 5.09241 49.3657 7.26735 51.2466 9.83122C53.4424 12.8168 54.9079 16.3345 55.4617 19.9962C55.8867 22.8989 55.8002 25.8897 55.1033 28.744C55.5569 29.628 55.7836 30.6457 55.6305 31.634C55.4556 33.1217 54.4984 34.4823 53.1656 35.1715C52.8617 35.3794 52.4116 35.3828 52.2047 35.7131C49.7768 39.5885 46.1883 42.7398 42.0036 44.6138C41.1302 45.02 40.2206 45.3417 39.3075 45.6452L39.118 45.6866C34.7195 47.0319 29.9183 46.9845 25.5257 45.6331C22.2376 44.5957 19.1744 42.8451 16.6453 40.5054C14.2237 38.2813 12.2797 35.5432 10.9908 32.5223C10.4161 31.1968 9.99978 29.8101 9.66049 28.4096C9.05462 28.0407 8.32419 27.9353 7.62649 28.0156C6.18546 28.164 4.82225 28.683 3.42779 29.0383C4.42142 28.3087 5.50506 27.7016 6.62853 27.1953C4.8438 27.2187 3.09369 27.6369 1.36262 28.0372C0.898697 28.1519 0.434685 28.27 -0.0240479 28.4019C1.75809 26.5022 4.10281 25.2164 6.52025 24.297C5.69358 24.1917 4.85583 24.0941 4.06638 23.8123C3.32634 23.5657 2.63651 23.1836 2.01679 22.7128C2.61401 22.6946 3.21383 22.7325 3.80931 22.6636C5.6477 22.6765 7.57784 22.5774 9.21716 21.6572C9.51828 17.6859 10.8893 13.8009 13.1397 10.5109C15.667 6.78786 19.2953 3.81263 23.4603 2.08096Z" fill="black"/>
<path d="M29.8625 1.16938C32.8114 0.867541 35.8261 1.06675 38.6754 1.90758C44.7021 3.61855 49.9057 7.96842 52.6546 13.5774C54.0135 16.2956 54.8047 19.2975 54.944 22.3314C54.9241 22.966 55.0393 23.5992 54.9552 24.2321C54.9362 25.4816 54.7674 26.7227 54.5363 27.9497C54.3701 27.7935 54.1986 27.6428 54.0223 27.498C54.2759 25.8784 54.4603 24.2337 54.3546 22.5936C54.332 22.1648 54.3183 21.7364 54.2759 21.3094C53.9315 17.9047 52.7776 14.5819 50.9098 11.7084C49.0306 8.79105 46.447 6.32722 43.4402 4.58434C40.3242 2.77678 36.7549 1.7307 33.1472 1.64533C32.7136 1.58151 32.2739 1.62808 31.8377 1.61342L31.7797 1.65567C27.993 1.70914 24.2451 2.86733 21.0167 4.82408C17.8523 6.7541 15.1856 9.48958 13.3524 12.7046C11.9381 15.1598 11.0242 17.896 10.6598 20.7022C10.4892 20.9092 10.2365 21.0248 10.0115 21.1619C10.4227 16.9803 12.0923 12.9417 14.6975 9.64214C17.417 6.18484 21.1709 3.54076 25.3583 2.16276C26.8211 1.68077 28.3331 1.34961 29.8625 1.16938Z" fill="#F9FCFA"/>
<path d="M30.8563 2.97696C31.3037 2.75187 31.9268 2.71824 32.2991 3.10028C32.5535 3.32881 32.5942 3.68842 32.6791 4.00061C32.4359 4.0213 32.1918 4.0351 31.9486 4.03252C31.8656 3.87901 31.8621 3.63496 31.6699 3.57114C31.515 3.53147 31.3558 3.57545 31.2017 3.5927C31.1895 3.72206 31.1826 3.85141 31.1792 3.98163C31.6188 4.1429 32.1121 4.23431 32.4567 4.57668C32.8419 4.93888 32.8117 5.55807 32.5813 5.99617C32.2376 6.63951 31.2742 6.72824 30.7377 6.28507C30.4511 6.01514 30.3967 5.61154 30.3378 5.24417C30.5993 5.24417 30.8606 5.24417 31.1221 5.24158C31.1792 5.3994 31.2017 5.57705 31.3099 5.7133C31.4163 5.87285 31.6222 5.81075 31.7841 5.81938C31.8983 5.6193 31.9625 5.38292 31.887 5.15793C31.6352 4.92163 31.2605 4.92508 30.9635 4.77072C30.278 4.47233 30.2053 3.35037 30.8563 2.97696Z" fill="#FCFDFC"/>
<path d="M34.2889 3.01402C34.7173 2.92778 35.2522 2.94071 35.5681 3.29084C35.8287 3.55473 35.8615 3.94798 35.8581 4.29811C35.6323 4.29207 35.4071 4.2731 35.1839 4.2455C35.1103 4.0851 35.0662 3.91435 34.9995 3.75136C34.8515 3.7298 34.6749 3.60906 34.5398 3.71945C34.3649 3.79965 34.3425 4.0713 34.5295 4.15064C34.8964 4.34468 35.3138 4.49473 35.5699 4.84055C35.8954 5.24242 35.7992 5.84437 35.5241 6.24624C35.0819 6.86974 34.0051 6.83706 33.5836 6.21183C33.3879 5.92284 33.4017 5.55728 33.3898 5.22526C33.6468 5.2563 33.9038 5.29166 34.1627 5.30546C34.2086 5.50295 34.1887 5.73752 34.3427 5.89102C34.4311 5.94285 34.5331 5.96441 34.6309 5.99287C34.6811 5.96527 34.7798 5.91094 34.8291 5.88326C34.9355 5.69526 34.958 5.48139 34.9192 5.27097C34.572 5.05192 34.1461 4.94498 33.8571 4.64487C33.4503 4.13943 33.6277 3.21409 34.2889 3.01402ZM27.3482 3.54956C27.6669 3.2986 28.1056 3.23737 28.4933 3.33741C28.9468 3.49781 29.2506 3.93936 29.3137 4.40591C29.0593 4.47059 28.8038 4.53354 28.5451 4.57148C28.5053 4.44644 28.4663 4.32139 28.4275 4.19721C28.2907 4.16616 28.1548 4.13598 28.0182 4.1058C27.8823 4.1998 27.7083 4.27569 27.672 4.45506C27.7516 4.93369 27.8537 5.40886 27.9662 5.87972C28.0276 6.19881 28.4785 6.30152 28.6931 6.07031C28.8386 5.9444 28.784 5.73062 28.8135 5.56323C29.0481 5.48993 29.2861 5.41662 29.531 5.38385C29.6963 5.6098 29.6825 5.92026 29.6158 6.17983C29.4461 6.63431 28.9726 6.88181 28.5269 6.99565C27.9383 7.07758 27.2737 6.67915 27.1819 6.06945C27.078 5.53649 26.968 5.0044 26.8771 4.46972C26.803 4.09372 27.0643 3.7617 27.3482 3.54956ZM39.4648 5.36488C39.657 4.96387 40.023 4.56717 40.506 4.58787C41.1759 4.59218 41.9341 5.14152 41.8216 5.87455C41.7247 6.37904 41.4312 6.81541 41.2486 7.29059C41.041 7.72178 40.8895 8.18229 40.6402 8.59279C40.404 8.53156 40.1902 8.41091 39.9685 8.31346C40.024 7.98403 40.2065 7.69944 40.3311 7.39502C40.5353 6.91295 40.7682 6.44295 40.9612 5.95656C41.0408 5.79443 40.9377 5.63834 40.8859 5.48742C40.6799 5.45724 40.3942 5.38739 40.2835 5.62368C39.9328 6.39034 39.6013 7.16563 39.2501 7.93142C38.9635 7.90297 38.7073 7.76326 38.4633 7.62269C38.7914 6.86793 39.135 6.11947 39.4648 5.36488Z" fill="#FBFDFA"/>
<path d="M21.0653 6.19449C21.2904 6.05988 21.5128 5.91853 21.749 5.80383C22.2779 6.6369 22.734 7.51481 23.2551 8.35313C23.6463 8.13314 24.0262 7.89512 24.4253 7.69254C24.5585 7.91159 24.6849 8.13408 24.8018 8.36175C24.1734 8.69895 23.5659 9.07322 22.9418 9.41999C22.3143 8.3452 21.7032 7.26213 21.0653 6.19449Z" fill="#FAFDFA"/>
<path d="M42.8413 6.46097C43.403 6.08842 44.2634 6.30488 44.5783 6.89906C44.6728 7.05602 44.7177 7.23539 44.7784 7.40787C44.761 7.6502 44.7282 7.90547 44.5758 8.10554C44.2478 8.55743 43.943 9.02657 43.5995 9.4663C43.3477 9.78029 42.9027 9.84661 42.528 9.76132C41.8286 9.62938 41.3119 8.82555 41.5957 8.1503C41.7757 7.82604 42.0163 7.53887 42.2179 7.22755C42.4154 6.96461 42.572 6.66018 42.8413 6.46097Z" fill="#FBFDFA"/>
<path d="M43.0308 7.33193C43.1243 7.17928 43.287 7.10003 43.4463 7.03009C43.578 7.08796 43.7094 7.14738 43.8393 7.21128C43.9094 7.40618 43.9985 7.63721 43.86 7.82616C43.6548 8.14007 43.4376 8.44621 43.2161 8.74805C43.011 8.99728 42.6378 9.01021 42.392 8.81445C42.3575 8.71786 42.3228 8.623 42.2881 8.52728C42.4518 8.08229 42.7711 7.72181 43.0308 7.33193Z" fill="#010101"/>
<path d="M18.9655 7.77344C19.3948 7.32758 20.2127 7.231 20.6611 7.701C21.2557 8.34347 21.8685 8.97129 22.4476 9.63015C22.2589 9.80349 22.0763 9.98373 21.8876 10.1562C21.2688 9.56979 20.7373 8.89894 20.1219 8.30993C19.993 8.17272 19.793 8.23059 19.6277 8.22541C19.5212 8.3884 19.4035 8.61875 19.5559 8.79373C20.1037 9.41206 20.6785 10.008 21.2506 10.6047C21.248 10.6573 21.2462 10.7108 21.2445 10.7644C21.0498 10.9196 20.8742 11.0964 20.6897 11.2637C20.1739 10.6944 19.632 10.1485 19.1223 9.57418C18.9795 9.4293 18.8237 9.22673 18.5917 9.29218C18.3537 9.35859 18.2074 9.68026 18.4083 9.8674C18.9769 10.5021 19.5672 11.1179 20.1549 11.7362C19.9809 11.9466 19.7715 12.1225 19.5629 12.2985C18.9734 11.6888 18.4039 11.0593 17.818 10.4469C17.477 10.1227 17.4172 9.59143 17.6034 9.17145C17.7539 8.73163 18.2083 8.47904 18.6584 8.45826C18.7231 8.21584 18.7846 7.9598 18.9655 7.77344Z" fill="#FBFDFB"/>
<path d="M25.8594 9.02312C28.9218 7.62261 32.4375 7.2492 35.7309 7.94945C38.9118 8.61185 41.8624 10.2901 44.078 12.6539C45.2889 13.9534 46.2861 15.4479 47.0156 17.0657C47.5089 18.2196 47.9105 19.4211 48.1113 20.6627C46.4556 20.3393 44.8205 19.9004 43.2305 19.3355C42.4758 19.0639 41.728 18.7638 41.0225 18.3809C40.9109 18.3231 40.8114 18.2472 40.7343 18.1497C40.4149 17.772 40.0956 17.396 39.7753 17.02C39.6947 16.8726 39.5216 16.9284 39.3876 16.9215C39.3589 16.7685 39.335 16.6147 39.3158 16.4602C39.0016 16.1411 39.0084 15.6875 38.9937 15.2709C38.8639 14.0075 38.9263 12.7088 38.5523 11.4799C38.0616 10.3916 37.0558 9.51106 35.8588 9.30409C35.0131 9.17223 34.1381 9.23768 33.3158 9.47225C31.7873 9.89913 30.3902 10.6849 29.0652 11.5394C27.8683 12.3234 26.7309 13.1952 25.63 14.1068C24.2686 14.1818 23.01 14.757 21.8139 15.365C21.0297 15.7453 20.2472 16.1662 19.386 16.3456C18.9576 16.3999 18.5266 16.4327 18.105 16.5343C19.7159 13.2376 22.5056 10.5331 25.8594 9.02312Z" fill="white"/>
<path d="M45.6092 8.27889C45.7554 8.13228 45.8827 7.921 46.1191 7.93566C46.5008 8.39876 47.1135 8.70318 47.2753 9.31806C47.3308 9.65362 47.2572 10.0287 47.0157 10.2796C46.6625 10.6755 46.3007 11.0644 45.926 11.4404C45.6265 11.7543 45.1366 11.7801 44.7453 11.6551C44.2529 11.3904 43.8754 10.9634 43.4686 10.5884C44.162 9.80005 44.9081 9.06012 45.6092 8.27889Z" fill="#FBFDFB"/>
<path d="M46.0593 9.04041C46.2809 9.17321 46.4625 9.37156 46.4757 9.64321C46.0827 10.0666 45.6906 10.4918 45.2899 10.9083C45.166 10.9057 45.0415 10.904 44.9186 10.9014C44.8138 10.7997 44.7082 10.6979 44.6034 10.5978C45.0966 10.086 45.5819 9.56682 46.0593 9.04041Z" fill="#010001"/>
<path d="M31.1695 11.9C32.3753 11.2093 33.6579 10.5564 35.0584 10.3968C35.9464 10.2778 36.9469 10.5391 37.5017 11.2808C37.9543 11.7741 38.0047 12.4718 38.0661 13.1047C38.1458 13.7403 38.1103 14.3845 38.2089 15.0192C37.9605 15.0666 37.7146 15.1374 37.4619 15.1572C37.3321 15.096 37.2031 15.0365 37.0888 14.9511C37.0446 14.7786 37.0178 14.6027 36.991 14.4267C35.9705 14.6156 34.8946 14.826 34.0594 15.4814C33.6395 15.8004 33.3911 16.2938 33.3046 16.806C33.3037 16.9604 33.3003 17.1156 33.3115 17.2717C33.4527 17.3888 33.6552 17.3579 33.8255 17.4C33.5875 17.8357 33.3746 18.2919 33.3097 18.7886V19.1336C33.7087 19.0715 34.048 18.8438 34.4211 18.7067C34.4048 18.7955 34.3726 18.9732 34.3571 19.062C34.3493 19.1827 34.3424 19.3035 34.3364 19.4242C34.4142 19.6153 34.5083 19.7993 34.6177 19.9744C35.1552 19.8578 35.6199 19.5484 36.1332 19.3654L36.0743 19.662C36.0951 19.7207 36.1358 19.8371 36.1556 19.8949C36.7085 19.7603 37.2314 19.524 37.6972 19.1981C38.304 18.81 38.8933 18.3003 39.6317 18.2045C40.0438 18.4632 40.2358 18.9979 40.6713 19.2473C41.3793 19.6732 42.148 19.9871 42.9182 20.2822C44.5003 20.8677 46.1285 21.3298 47.7799 21.6756C48.6385 21.8628 49.5135 21.9904 50.3462 22.2784C50.8118 22.4466 51.281 22.7303 51.487 23.2003C51.8747 24.1239 51.8696 25.2166 51.4127 26.1143C51.0034 26.8663 50.2727 27.4803 49.4175 27.644C45.9934 28.4331 42.5139 28.9636 39.0329 29.4248C37.9986 29.5387 36.9669 29.6629 35.9299 29.75C33.5394 29.9631 31.1391 30.0828 28.7373 30.0537C27.9505 30.0649 27.1568 30.0468 26.3882 29.8649C26.0871 29.7512 25.7779 29.6234 25.5607 29.3769C25.263 29.0888 25.1799 28.6697 25.1037 28.2808C24.9764 27.5667 24.806 26.856 24.7817 26.1282C24.7548 25.4951 24.9704 24.8906 25.0907 24.2766C25.4637 22.4243 25.7562 20.5537 26.2314 18.7219C26.2945 18.4977 26.2591 18.2606 26.3215 18.0365C26.5717 16.9948 26.8667 15.965 27.1368 14.9284C27.1688 14.8396 27.1809 14.7326 27.2562 14.6697C28.502 13.6679 29.7898 12.7116 31.1695 11.9Z" fill="white"/>
<path d="M45.5218 12.6288C46.5318 11.9009 47.5385 11.1687 48.5502 10.4434C48.9111 10.9618 49.2928 11.4654 49.6598 11.9794C49.4512 12.126 49.2546 12.2916 49.0288 12.4106C48.7813 12.1312 48.5744 11.8181 48.358 11.5145C48.197 11.6267 48.0343 11.7361 47.8716 11.8448C47.881 12.0966 48.0898 12.2682 48.2091 12.4753C48.0178 12.6175 47.8239 12.7581 47.6248 12.8901C47.4925 12.7064 47.3652 12.5193 47.2163 12.3494C47.0441 12.4494 46.883 12.5658 46.7204 12.6787L46.6062 12.8202C46.826 13.116 47.0459 13.4118 47.2528 13.718C47.0477 13.8732 46.8373 14.0207 46.62 14.1586C46.2609 13.6438 45.855 13.1609 45.5218 12.6288Z" fill="#FBFDFB"/>
<path d="M16.0045 10.854C16.0859 10.7444 16.1525 10.6185 16.266 10.5383C16.4918 10.6384 16.6718 10.816 16.8719 10.9592C16.7143 11.1774 16.5525 11.3912 16.4071 11.6189C17.2059 12.1888 17.9944 12.7728 18.7951 13.3393C18.6765 13.5636 18.5198 13.7636 18.3666 13.9645C17.5522 13.3902 16.7541 12.7934 15.9388 12.2208C15.8003 12.4251 15.6688 12.6356 15.5095 12.8244C15.2559 12.8115 15.0793 12.5631 14.8673 12.4433C15.2126 11.8906 15.6358 11.3912 16.0045 10.854Z" fill="#FCFDFA"/>
<path d="M13.9758 14.0879C14.1117 13.8248 14.2484 13.5618 14.4137 13.3161C15.4828 13.8956 16.5794 14.4319 17.6309 15.0417C17.6439 15.3332 17.3964 15.5937 17.2587 15.8447C16.8165 15.6343 16.4114 15.3444 15.9492 15.1807C15.8808 15.3306 15.8107 15.4816 15.7423 15.6334C16.1594 15.8818 16.6216 16.0543 17.0172 16.3406C16.8899 16.5975 16.7506 16.8486 16.6156 17.1011C15.5189 16.5518 14.4439 15.9585 13.3586 15.3901C13.3179 15.2263 13.4598 15.0754 13.5178 14.9279C13.5949 14.8201 13.626 14.6494 13.7619 14.602C14.2016 14.7978 14.6083 15.0617 15.048 15.26C15.1294 15.1091 15.2125 14.959 15.3007 14.8116C14.8611 14.5666 14.4111 14.3398 13.9758 14.0879Z" fill="#FCFEFB"/>
<path d="M47.0062 14.4984C47.1041 14.2328 47.4346 14.2164 47.645 14.3553C47.7368 14.5433 47.7445 14.7425 47.6397 14.9271C47.5341 14.9684 47.4294 15.0098 47.3246 15.053C47.1317 14.9452 46.847 14.7511 47.0062 14.4984Z" fill="#F6FCF8"/>
<path d="M34.2387 16.2327C35.0333 15.5514 36.0338 15.2064 37.0178 14.8994L37.0888 14.9512C37.203 15.0366 37.3321 15.0961 37.4619 15.1573C36.3687 15.5876 35.3153 16.112 34.2369 16.5759C34.2352 16.4604 34.2362 16.3473 34.2387 16.2327Z" fill="#F8FBF9"/>
<path d="M47.9236 15.6764C48.0682 15.3366 48.3962 15.1297 48.7224 14.9874C48.8341 15.2435 48.9517 15.497 49.0617 15.7549C48.8375 15.8748 48.628 16.0515 48.6766 16.331C48.8064 16.3637 48.9423 16.4776 49.0799 16.4077C49.8996 16.0791 50.6829 15.6678 51.493 15.3177C51.6099 15.5884 51.7423 15.8514 51.8514 16.1257C51.2619 16.4094 50.6622 16.6725 50.0727 16.9562C49.6659 17.1192 49.2435 17.3615 48.79 17.2761C48.0941 17.1606 47.619 16.3198 47.9236 15.6764Z" fill="#FCFDFB"/>
<path d="M20.0872 17.4728C22.1576 17.0571 23.8289 15.5005 25.9556 15.2823C25.7097 16.2836 25.412 17.2719 25.1706 18.2748C25.0979 18.5887 25.11 18.9173 25.0122 19.226C24.4591 21.3656 24.1813 23.5638 23.6663 25.712C23.5269 26.357 23.6048 27.0237 23.7277 27.6652C23.7892 28.0939 23.88 28.5215 24.048 28.9234C23.3391 28.9537 22.6432 29.1943 22.0399 29.5609C21.3518 29.9645 20.8351 30.6732 20.0051 30.806C18.9655 30.881 18.0723 30.2152 17.0553 30.1386C16.6865 30.1368 16.343 30.3205 15.9716 30.3058C16.0391 30.2558 16.1067 30.2075 16.1751 30.1592C16.6953 29.8877 17.2128 29.5736 17.8057 29.4891C18.5292 29.4072 19.2572 29.3563 19.9755 29.2373C20.3685 29.1666 20.7304 28.982 21.0298 28.7207C21.4245 28.3896 22.0728 28.318 22.2528 27.773C22.2908 27.3849 22.2096 26.7588 21.7223 26.7072C21.3068 26.7666 20.9649 27.0434 20.6447 27.2945C20.1115 27.7128 19.6303 28.2 19.0547 28.5631C18.7959 28.7409 18.4687 28.689 18.1728 28.6933C17.7348 28.6864 17.3185 28.5218 16.8839 28.4889C16.227 28.5581 15.5995 28.7814 14.9772 28.9917C14.5003 29.1383 14.013 29.2989 13.5076 29.2738C12.8212 29.2539 12.1669 29.0047 11.5601 28.7003C11.9773 28.6865 12.3988 28.7237 12.8134 28.6554C14.2165 28.4545 15.4862 27.7767 16.8529 27.4412C17.2891 27.3136 17.7591 27.4447 18.1884 27.2781C18.8332 27.0556 19.4408 26.5183 19.5291 25.8146C19.5732 25.5421 19.465 25.2885 19.3378 25.0565C18.9501 24.7056 18.4108 24.9179 18.0126 25.1335C16.8632 25.782 15.919 26.7306 14.7781 27.3919C14.4692 27.5669 14.1161 27.6704 13.7586 27.6559C12.9943 27.6352 12.2621 27.3927 11.5107 27.2765C10.8174 27.148 10.1103 27.173 9.40928 27.2006C10.7292 26.5642 12.2344 26.6306 13.6478 26.3726C14.1654 26.2735 14.7297 26.2054 15.153 25.8665C15.3209 25.7458 15.3269 25.5233 15.3555 25.3387C15.1781 24.8428 14.7669 24.3703 14.2027 24.359C13.3276 24.3859 12.6006 24.9377 11.8969 25.3939C11.4105 25.7069 10.9188 26.1588 10.2947 26.0856C9.6551 25.9994 9.03027 25.789 8.37843 25.7975L8.32217 25.7604C7.69466 25.7492 7.0681 25.8157 6.45184 25.9303C6.97116 25.6069 7.49568 25.2699 8.09108 25.1041C8.79476 24.8998 9.53998 24.9817 10.2549 24.8523C11.4468 24.5162 12.2153 23.4563 13.2808 22.8914C13.5994 22.7371 13.9611 22.6086 14.3186 22.687C15.2179 22.8319 15.7519 23.7062 16.6131 23.9418C17.3817 24.1298 18.1858 23.8392 18.8072 23.3899C19.1448 23.1562 19.421 22.8207 19.5127 22.4145C19.3577 21.9851 18.8194 21.9014 18.4203 21.9384C17.7514 21.9979 17.3583 22.6086 16.794 22.8905C15.9527 22.7984 15.3383 22.16 14.5662 21.8894C14.0694 21.7644 13.493 21.8247 13.0904 22.1644C12.4491 22.6783 11.7765 23.194 10.9724 23.426C10.0385 23.7279 9.03027 23.578 8.11799 23.2727C9.07181 23.1761 10.0395 22.9733 10.8661 22.4671C11.8796 21.8653 12.6335 20.7957 13.8487 20.5665C14.5247 20.3915 15.1928 20.6933 15.7735 21.0124C16.1405 21.1951 16.5396 21.4117 16.9637 21.3313C17.6034 21.1864 18.0672 20.694 18.6064 20.3594C18.8618 20.1947 19.207 20.18 19.401 19.9239C19.5637 19.7892 19.5092 19.5677 19.523 19.3839C19.3569 19.2002 19.131 19.0553 18.8721 19.1055C18.0308 19.1779 17.5331 19.9947 16.7498 20.2171C16.452 20.2809 16.169 20.1446 15.8912 20.0584C15.4298 19.8989 14.9469 19.7807 14.4544 19.8031C14.0034 19.7807 13.575 19.936 13.137 20.0128C13.343 19.8309 13.5464 19.636 13.8052 19.5298C14.4198 19.2521 15.1157 19.3711 15.7605 19.2288C16.3482 19.0848 16.7982 18.6605 17.3011 18.3527C17.8265 17.9964 18.4194 17.7362 19.0451 17.6162C19.387 17.5331 19.7436 17.5521 20.0872 17.4728Z" fill="white"/>
<path d="M34.8117 17.4417C35.5396 16.926 36.2398 16.3387 37.0749 15.9998C36.8863 16.2128 36.6733 16.4018 36.4484 16.5732C35.5898 17.2357 34.7191 17.8815 33.8275 18.4989C34.0058 18.0358 34.4525 17.7574 34.8117 17.4417Z" fill="#EEFAF9"/>
<path d="M37.8203 16.8269C38.0678 16.7406 38.3352 16.7165 38.5924 16.7768C38.6122 17.2434 38.1631 17.5159 37.8645 17.8031C36.9315 18.5447 35.8452 19.0637 34.7451 19.5087C34.81 19.0525 34.9659 18.6179 35.1293 18.1901C35.9948 17.6798 36.8604 17.145 37.8203 16.8269Z" fill="#FDFDFC"/>
<path d="M50.6086 18.0083C50.798 17.658 51.2126 17.5211 51.5858 17.4797C52.3076 17.4899 52.7161 18.3386 52.55 18.9655C52.4374 19.3941 52.0194 19.6114 51.6386 19.7623C51.5728 19.5286 51.5131 19.2932 51.4526 19.0586C51.5833 18.949 51.8291 18.9017 51.8283 18.6956C51.8326 18.5714 51.8066 18.4498 51.7937 18.3272C51.6717 18.2901 51.5488 18.2567 51.4259 18.2298L51.309 18.4317C51.2908 18.9404 51.2579 19.5244 50.8486 19.8883C50.549 20.1919 50.0825 20.1841 49.6904 20.1263C49.0084 19.9452 48.6942 19.0992 48.941 18.4784C49.1166 18.0997 49.5199 17.9212 49.8912 17.786C49.9683 18.0369 50.0323 18.2912 50.0929 18.5464C49.8981 18.6672 49.5572 18.7596 49.6116 19.0546C49.5795 19.2098 49.7345 19.2822 49.8235 19.3788C50.0201 19.3581 50.2754 19.3883 50.394 19.19C50.496 18.8026 50.4337 18.3773 50.6086 18.0083Z" fill="#FBFEFB"/>
<path d="M29.0577 21.8088C29.2897 21.0483 30.0402 20.6032 30.7975 20.51C31.4016 20.4738 32.0578 20.5678 32.5355 20.9679C32.8635 21.2189 32.9889 21.6294 33.1024 22.0081C33.2877 22.0081 33.4737 22.0125 33.6597 22.0254C33.6909 21.5381 34.1098 21.1699 34.5444 21.0111C34.8135 20.9015 35.0697 21.0542 35.3051 21.1689C35.5052 21.0723 35.6825 20.8886 35.924 20.9224C36.1309 20.899 36.3386 21.0973 36.5351 20.981C36.8267 20.8198 37.2041 20.7698 37.496 20.9586C37.8014 21.1007 37.9053 21.4467 37.9849 21.746C38.5977 21.533 39.3324 21.4881 39.8734 21.9055C40.0318 21.8357 40.1885 21.7615 40.3451 21.6865C40.4586 21.1647 41.0341 20.8224 41.5481 20.9569C42.1167 21.0785 42.4845 21.7934 42.115 22.2893C42.2034 22.5911 42.2277 22.9136 42.1116 23.2129C42.3402 23.4388 42.5886 23.7122 42.5349 24.0606C42.5773 24.5323 42.2267 24.9075 41.8651 25.1559C42.097 25.5077 41.9541 25.9294 42.0883 26.3063C42.1758 26.6685 42.1082 27.0867 41.8157 27.3429C41.4141 27.7708 40.7771 27.7076 40.2465 27.8044C40.1496 27.7423 40.0527 27.6802 39.9558 27.6207C39.4157 27.8741 38.7484 27.9207 38.2516 27.5438C38.0564 27.7275 37.8203 27.8623 37.5626 27.9372C37.2986 28.2984 36.9508 28.6599 36.4902 28.7401C36.0452 28.7558 35.7354 28.3564 35.6557 27.9546C35.2091 28.0943 34.7488 28.0314 34.3142 27.8821C33.9341 28.1858 33.4063 28.2218 32.9554 28.0709C32.7624 28.446 32.4906 28.7901 32.1026 28.979C31.2752 29.3911 30.138 29.2532 29.5441 28.5055C29.0483 27.8958 29.1295 26.942 29.7138 26.4168C29.6272 26.228 29.5605 26.0313 29.5243 25.8278C29.4074 25.7933 29.2916 25.7579 29.1763 25.7243C29.0655 25.7821 28.9546 25.8399 28.8448 25.8986C28.2587 25.9004 27.6659 25.8408 27.0921 25.9927C26.9302 25.8771 26.7371 25.7892 26.6307 25.615C26.5303 25.4365 26.5511 25.2269 26.546 25.0311C25.7965 24.812 25.5532 23.7685 26.0734 23.2149C26.3955 22.869 26.8947 22.8121 27.3422 22.8327C27.6253 22.6956 27.9603 22.5119 28.2632 22.7214C28.6433 22.8871 28.5896 23.357 28.7844 23.6573C29.0735 23.8495 29.3972 23.5788 29.7088 23.5779C29.081 23.2508 28.9062 22.4513 29.0577 21.8088Z" fill="#010102"/>
<path d="M30.4754 21.1612C30.9826 21.0112 31.5651 21.0224 32.028 21.2966C32.5171 21.5674 32.6754 22.2858 32.3405 22.7342C32.2011 22.9188 31.9692 22.9904 31.7657 23.0774C32.0141 23.7302 32.3975 24.4701 33.1195 24.6807C33.5366 24.7937 33.8639 24.3832 34.2688 24.422C34.4946 24.4279 34.4774 24.7091 34.4964 24.8694C34.1218 25.4438 33.3082 25.5438 32.7231 25.2566C32.1362 24.9574 31.7581 24.3701 31.5207 23.7759C31.4264 23.5387 31.3502 23.2962 31.2698 23.0549C31.2325 23.0603 31.1564 23.0696 31.1192 23.0748C31.128 23.2179 31.1375 23.362 31.1478 23.506C31.2396 23.5473 31.3313 23.5888 31.4238 23.6308C31.4003 23.7369 31.3753 23.844 31.3486 23.9499C31.1808 24.2424 30.9261 24.4777 30.6301 24.6381C30.5454 24.5578 30.4388 24.4965 30.3833 24.3922C30.4535 24.1957 30.6093 24.0301 30.6161 23.8126C30.6283 23.4384 30.5754 23.0649 30.5823 22.6907C30.5918 22.4682 30.4327 22.2957 30.3149 22.1258C30.4983 21.8792 30.8107 21.9223 31.0817 21.9283C31.1086 21.9749 31.1362 22.0215 31.1647 22.0689C31.1274 22.2664 31.1111 22.4663 31.1042 22.6672C31.3509 22.6664 31.652 22.6983 31.8129 22.4663C32.0657 22.1851 31.8311 21.7489 31.5048 21.6515C31.0027 21.4814 30.2783 21.6058 30.0776 22.1594C30.1615 22.4725 30.4714 22.6976 30.4507 23.0382C30.3174 23.0881 30.1763 23.2047 30.0301 23.1253C29.6207 22.9149 29.4813 22.3835 29.6137 21.9671C29.7172 21.5613 30.0851 21.2733 30.4754 21.1612Z" fill="#F9FCFA"/>
<path d="M36.8526 21.4363C36.9859 21.3879 37.1295 21.4199 37.268 21.4234C37.385 21.6321 37.4619 21.952 37.2429 22.1211C37.0698 22.1875 36.8146 22.1771 36.7358 21.9796C36.6094 21.8002 36.7236 21.5778 36.8526 21.4363Z" fill="#F4FAF9"/>
<path d="M34.2309 21.9701C34.3425 21.733 34.5918 21.6071 34.8211 21.5062C35.1328 22.2142 34.9535 23.0153 35.0946 23.7579C35.1717 23.8484 35.2608 23.9295 35.3465 24.014C35.349 24.0606 35.3534 24.1546 35.3559 24.2011C35.0539 24.3434 34.712 24.3063 34.3891 24.2839C34.3865 24.2314 34.3822 24.1252 34.3797 24.0726C34.4411 23.9786 34.5034 23.8846 34.551 23.783C34.5387 23.2725 34.4687 22.7644 34.4782 22.2532C34.3953 22.1607 34.1798 22.1356 34.2309 21.9701ZM35.4193 21.8184C35.5984 21.6649 35.7812 21.501 36.0199 21.4518C36.2052 21.8632 36.1714 22.3254 36.2156 22.7653C36.2485 23.1533 36.1343 23.6163 36.4502 23.9165H36.7653C36.8068 23.8674 36.8891 23.7699 36.9297 23.7216C36.9322 23.4611 36.9322 23.2008 36.9202 22.941C36.8431 22.922 36.6891 22.8851 36.612 22.8662C36.6847 22.5548 36.9635 22.372 37.2404 22.258C37.4292 22.6961 37.3399 23.1851 37.4308 23.6439C37.5234 23.7396 37.6168 23.8353 37.7112 23.931C37.7077 23.9733 37.7017 24.0561 37.6991 24.0975C37.4195 24.1494 37.1355 24.1725 36.8517 24.1759C36.7633 24.1095 36.6751 24.0457 36.5876 23.9802C36.3757 24.37 35.8598 24.251 35.5057 24.1742C35.581 23.9664 35.755 23.7827 35.7265 23.548C35.7092 23.1746 35.6832 22.8013 35.6651 22.4279C35.6521 22.3382 35.6408 22.2494 35.6312 22.1604C35.4479 22.1287 35.4253 21.9719 35.4193 21.8184Z" fill="#F8FCF9"/>
<path d="M40.9657 21.6812C41.1441 21.3432 41.7836 21.5018 41.6902 21.9115C41.5724 22.1133 41.3336 22.015 41.1474 22.0262C41.3481 22.297 41.7341 22.5453 41.6036 22.9343C41.4487 23.2963 40.9951 23.3258 40.6644 23.4344C40.6471 23.4715 40.6124 23.5457 40.5951 23.5835C40.9526 23.7664 41.3481 23.4801 41.7074 23.6543C41.8823 23.7146 41.9472 23.9018 42.0197 24.0544C41.8968 24.6512 41.2244 24.8832 40.6808 24.8418C40.4497 24.8012 40.1441 24.7685 40.0238 24.5399C39.9156 24.3312 40.1138 24.0751 40.338 24.1156C40.5336 24.2519 40.7024 24.4263 40.9188 24.5331C41.117 24.4582 41.4753 24.4253 41.4104 24.1303C41.3032 23.982 41.1031 24.0009 40.9439 24.0139C40.7041 24.0328 40.4635 24.0328 40.2229 24.0277C40.1606 23.9656 40.099 23.9035 40.0376 23.8423C40.0367 23.7629 40.0367 23.6844 40.0367 23.6069C40.1319 23.5193 40.2282 23.4331 40.3258 23.3482C40.2158 23.2232 40.048 23.1266 40.0185 22.9513C39.9555 22.7564 40.0671 22.5755 40.1405 22.4037C40.4046 22.2606 40.6937 22.1804 40.9905 22.1398C40.9483 21.9924 40.8263 21.8122 40.9657 21.6812Z" fill="#F6FAF7"/>
<path d="M38.652 22.3943C38.8615 22.2632 39.1384 22.0873 39.3799 22.2494C39.6413 22.4262 39.605 22.7703 39.6309 23.0437C39.6196 23.2765 39.8714 23.3905 39.8879 23.6163C39.6707 23.8466 39.4543 24.2357 39.0769 24.0967C39.1453 23.6448 39.2682 23.1524 39.0536 22.7212C38.9211 22.755 38.7913 22.7902 38.6597 22.8238C38.6251 23.0056 38.5602 23.1877 38.586 23.3755C38.6086 23.6265 38.8431 23.7696 38.9583 23.9775C38.6571 24.1241 38.3213 24.125 37.9948 24.1068L37.859 23.9404C37.9421 23.8542 38.0262 23.7696 38.1144 23.6885C38.1378 23.6179 38.1629 23.5489 38.1871 23.4789C38.1491 23.2926 38.1316 23.1037 38.1212 22.9149L37.8634 22.8666C37.8651 22.7338 37.8979 22.6069 37.9465 22.4854C38.0945 22.3862 38.2415 22.2853 38.393 22.1894C38.4865 22.2948 38.5504 22.4179 38.6128 22.5447C38.6226 22.5074 38.6426 22.4323 38.652 22.3943Z" fill="#F8FBF9"/>
<path d="M40.4878 22.7497C40.5536 22.5048 40.8393 22.5214 41.0382 22.5531C41.1028 22.6505 41.1546 22.7558 41.1923 22.8663C41.0529 22.95 40.9041 23.0138 40.7543 23.075C40.6497 22.9895 40.4039 22.9377 40.4878 22.7497Z" fill="#030207"/>
<path d="M32.9257 22.6392C33.3057 22.4531 33.825 22.5799 34.0239 22.9661C34.2031 23.3552 34.2127 23.8742 33.8881 24.1907C33.6501 24.4528 33.2433 24.4235 32.9301 24.3476C32.2705 24.0597 32.2618 22.9291 32.9257 22.6392Z" fill="#F8FBF6"/>
<path d="M31.1193 23.0748C31.1566 23.0695 31.2328 23.0602 31.2699 23.055C31.3505 23.2965 31.4266 23.5388 31.5208 23.7759C31.4628 23.8337 31.4048 23.8915 31.3487 23.9501C31.3756 23.8442 31.4006 23.7371 31.4239 23.6311C31.3313 23.589 31.2395 23.5474 31.1479 23.5062C31.1376 23.362 31.1279 23.218 31.1193 23.0748Z" fill="#152028"/>
<path d="M33.0321 23.0878C33.2174 22.881 33.6035 23.0145 33.6362 23.2853C33.6639 23.5086 33.7072 23.8165 33.4631 23.9424C33.2926 23.9658 33.0633 23.9864 32.9836 23.7941C32.8789 23.5811 32.8582 23.2679 33.0321 23.0878Z" fill="#020103"/>
<path d="M27.6096 23.4112C27.7341 23.2725 27.8884 23.1835 28.0796 23.2214C28.0787 23.3784 28.1031 23.5647 27.9498 23.663C27.8139 23.6957 27.6745 23.6983 27.5369 23.7106C27.5567 24.0398 27.5524 24.3701 27.581 24.6989C27.64 24.7722 27.6996 24.8463 27.7594 24.9213C27.5957 25.1421 27.4279 25.4328 27.1068 25.4077C27.1639 25.0574 27.357 24.6635 27.119 24.3384C26.9788 24.5566 26.6101 24.5247 26.4717 24.3222C26.2735 24.0971 26.3149 23.7004 26.5695 23.5322C26.8704 23.3145 27.266 23.4482 27.6096 23.4112Z" fill="#F2FAF9"/>
<path d="M26.6653 24.0906C26.7017 23.9511 26.6782 23.7638 26.8436 23.7044C26.9553 23.681 27.0688 23.6699 27.1839 23.6699C27.1917 23.838 27.2029 24.0071 27.2184 24.1769C27.0444 24.0924 26.8513 24.1036 26.6653 24.0906Z" fill="#030408"/>
<path d="M27.9498 23.6629C28.0129 23.6863 28.1393 23.7321 28.2034 23.7545C28.2354 23.9339 28.2372 24.1176 28.2511 24.3004C28.4458 24.2019 28.6459 24.1666 28.8378 24.2926C28.8577 24.4591 28.8751 24.6253 28.888 24.7928C28.9407 24.8668 28.9944 24.9419 29.0482 25.0177C28.9516 25.1311 28.8511 25.2413 28.7471 25.348L28.4987 25.2997C28.5896 25.0488 28.6596 24.7564 28.4909 24.5193C28.4103 24.5477 28.3342 24.5863 28.2582 24.6245C28.26 24.7443 28.265 24.8659 28.2738 24.9867C28.3352 25.0867 28.3993 25.1859 28.4667 25.2832C28.2607 25.3116 28.0531 25.3297 27.8452 25.3341C27.8408 25.3013 27.8323 25.235 27.8279 25.2012C27.8816 25.1195 27.9353 25.0391 27.9863 24.9573C27.9232 24.6926 27.9274 24.4192 27.9267 24.1493C27.6183 24.0778 27.8918 23.8294 27.9498 23.6629Z" fill="#F2F9F8"/>
<path d="M29.3882 24.1873C29.6532 24.1349 30.0167 24.158 30.0788 24.4848C30.1827 24.8574 29.6842 24.8108 29.4505 24.8212C29.4627 24.8589 29.4878 24.9348 29.5007 24.9729C29.7007 24.9686 29.8849 24.8807 30.0823 24.8582C30.149 25.3291 29.3294 25.4007 29.2012 24.9824C29.0446 24.7012 29.1693 24.39 29.3882 24.1873Z" fill="#F1FBF9"/>
<path d="M29.3363 24.4952C29.499 24.446 29.6634 24.4012 29.8305 24.364C29.8609 24.6685 29.4817 24.6996 29.3363 24.4952Z" fill="#61A6C3"/>
<path d="M31.1686 24.9824C31.3495 25.0092 31.513 24.7781 31.6835 24.909C31.9156 25.103 32.0567 25.4126 32.0454 25.7155C31.9692 25.7783 31.8817 25.8233 31.7961 25.8707C31.5779 25.6894 31.359 25.4999 31.0874 25.4067C30.9815 25.4444 30.8759 25.4826 30.7706 25.5214C30.7567 25.6508 30.6122 25.8241 30.7879 25.9016C31.2379 26.1613 31.7876 26.2191 32.1997 26.5563C32.4436 26.8814 32.5286 27.2867 32.4896 27.6867C32.2299 28.681 30.8322 28.951 30.112 28.2922C29.6619 27.9222 29.6576 27.0711 30.1994 26.782C30.4833 26.6071 30.8979 26.6095 31.1135 26.8898C31.0737 26.984 31.0348 27.0786 30.9959 27.1735C30.8029 27.2392 30.5666 27.2494 30.4333 27.4219C30.3665 27.6651 30.4653 27.955 30.7111 28.055C31.0365 28.198 31.4779 28.1653 31.735 27.9041C32.0258 27.5738 31.9385 26.9952 31.5446 26.7839C31.1577 26.5795 30.7068 26.5088 30.3416 26.2604C30.055 26.0629 30.0058 25.6386 30.2127 25.3672C30.4131 25.0497 30.8104 24.9342 31.1686 24.9824Z" fill="#F8FCF9"/>
<path d="M40.2212 25.4154C40.4574 25.2051 40.8124 25.4154 41.0539 25.2153C41.098 25.2153 41.1872 25.2144 41.2313 25.2144C41.3489 25.3991 41.4399 25.5999 41.5136 25.8077C41.2626 26.0328 41.0071 25.8026 40.7857 25.6637C40.7458 25.6691 40.6646 25.6775 40.6247 25.6827C40.6238 25.75 40.6229 25.8181 40.6238 25.8871C40.9086 26.0164 41.2566 26.0492 41.4824 26.2839C41.6546 26.4668 41.5317 26.7151 41.4815 26.9238C41.2539 27.1187 40.9631 27.1722 40.6715 27.1204C40.5668 27.1713 40.456 27.2713 40.3321 27.2188C40.1261 27.0463 39.9928 26.7919 40.0016 26.5211C40.3158 26.3564 40.5582 26.6617 40.8377 26.7564C41.0437 26.8392 40.9979 26.5849 41.022 26.4744C40.7285 26.3804 40.4309 26.2932 40.1556 26.1528L40.0311 25.9529C40.0274 25.7576 40.0663 25.549 40.2212 25.4154Z" fill="#F7FAF9"/>
<path d="M36.7911 25.706C37.031 25.5646 37.3261 25.4111 37.6005 25.5646C38.1292 25.8611 38.1934 26.6607 37.8523 27.1227C37.6836 27.3875 37.2844 27.466 37.0326 27.2754C36.8846 27.1996 36.8724 26.9579 37.0049 26.8624C37.1288 26.8443 37.2551 26.8365 37.3823 26.8382C37.5839 26.645 37.6359 26.376 37.5042 26.1268L37.3104 25.9922C37.1251 25.9939 36.8899 26.0397 36.8473 26.2544C36.8153 26.5424 36.8369 26.8339 36.8482 27.1236C36.8438 27.2901 37.0144 27.372 37.0915 27.5023C37.1314 27.6375 37.0006 27.7299 36.9322 27.8274C36.7651 27.9871 36.5869 28.2215 36.3245 28.1518C36.2189 27.9146 36.3678 27.668 36.3609 27.4257C36.3453 27.0366 36.2941 26.6504 36.3047 26.2615C36.2206 26.2208 36.1369 26.1811 36.0545 26.1414C36.0467 26.0931 36.031 25.9965 36.0242 25.9482C36.1938 25.7656 36.379 25.5602 36.6456 25.5396C36.6821 25.5809 36.7548 25.6645 36.7911 25.706Z" fill="#F8FCF9"/>
<path d="M38.5171 25.612C38.8721 25.2548 39.5774 25.3229 39.7997 25.7965C39.8872 25.9802 39.9418 26.2984 39.7097 26.3959C39.4224 26.545 39.0944 26.5011 38.7845 26.5037C38.7924 26.5477 38.8096 26.6374 38.8184 26.6813C39.1603 26.9332 39.4797 26.5761 39.8372 26.5882C39.8441 26.696 39.8666 26.8056 39.8529 26.915C39.7249 27.1429 39.4461 27.1971 39.2193 27.2781C38.7891 27.2841 38.3556 27.0092 38.288 26.5666C38.1882 26.2362 38.2782 25.862 38.5171 25.612Z" fill="#F8FBF9"/>
<path d="M34.4283 25.9337C34.6464 25.6034 35.1 25.5836 35.4453 25.6838C35.8746 25.8416 35.9586 26.353 35.9455 26.7529C35.8702 26.9867 35.7733 27.2506 35.5344 27.3654C35.3033 27.4999 35.0298 27.4482 34.7761 27.4575C34.2231 27.1859 34.0491 26.4149 34.4283 25.9337Z" fill="#F9FDF8"/>
<path d="M32.9239 25.8982C33.0841 25.7568 33.3013 25.7224 33.4994 25.6655C33.682 25.7292 33.8915 25.7656 34.0317 25.9096C34.1364 26.0502 34.1088 26.2682 33.9442 26.3535C33.708 26.2587 33.4742 26.1321 33.2111 26.1724C33.0631 26.4337 32.9972 26.8227 33.2726 27.026C33.5668 27.17 33.8438 26.8742 34.1475 26.9208C34.1535 27.0743 34.2263 27.2839 34.0566 27.3796C33.8264 27.5987 33.4827 27.6114 33.1885 27.5511C32.5371 27.316 32.4011 26.3278 32.9239 25.8982Z" fill="#F7FCF8"/>
<path d="M38.8486 25.8474C39.0693 25.7974 39.393 25.7441 39.4094 26.0613C39.1766 26.1277 38.9359 26.1603 38.6944 26.1725C38.7439 26.063 38.7957 25.9552 38.8486 25.8474Z" fill="#03080A"/>
<path d="M34.8662 26.094C35.0133 26.0268 35.176 26.0751 35.3293 26.0949C35.4428 26.3123 35.5328 26.564 35.4332 26.8064C35.3432 27.1056 34.8515 27.1125 34.7494 26.8141C34.7139 26.5744 34.662 26.275 34.8662 26.094Z" fill="#040304"/>
<path d="M50.2978 28.6019C50.9097 28.4622 51.3537 27.9853 51.8263 27.6213C52.6831 27.7102 53.4977 28.1138 54.0974 28.7278C54.622 29.3108 54.9837 30.0748 54.95 30.8708C54.9992 31.9282 54.4386 32.945 53.6223 33.5942C52.2427 34.7231 50.0614 34.7464 48.7 33.5745C47.8941 32.9043 47.4362 31.8263 47.5679 30.7838C47.6346 30.1499 47.9028 29.5506 48.2898 29.0469C48.9622 28.9149 49.6279 28.7475 50.2978 28.6019Z" fill="white"/>
<path d="M10.6712 29.3314C10.923 29.5824 11.1697 29.8385 11.4259 30.0851C11.612 30.2438 11.6414 30.5 11.727 30.7162C12.9614 34.1934 15.0922 37.348 17.8629 39.7954C20.3314 41.9859 23.2976 43.6227 26.4827 44.5127C30.112 45.5363 34.0085 45.6053 37.6697 44.6979C42.8595 43.4466 47.5205 40.2042 50.5282 35.8145C50.7826 35.7852 51.0381 35.7576 51.295 35.7464C48.2352 40.4266 43.3694 43.9106 37.9216 45.2483C36.6121 45.5888 35.2688 45.7916 33.9203 45.8803C32.0732 46.0029 30.2123 45.8932 28.3912 45.5648C24.8045 44.9204 21.3892 43.3735 18.5268 41.1287C14.7339 38.1666 11.9175 33.9745 10.6712 29.3314Z" fill="#FAFCFA"/>
<path d="M45.0604 29.6454C45.1704 29.6326 45.2846 29.5919 45.3972 29.6195C46.0698 30.1645 46.55 30.951 46.6574 31.8151C46.925 33.5037 45.7088 35.1931 44.0981 35.6717C43.0109 36.0236 41.7621 35.8787 40.8126 35.2336C40.0681 34.7516 39.5168 33.9764 39.3393 33.1061C39.1324 32.2336 39.3367 31.2849 39.8258 30.5397C39.8854 30.4112 40.0412 30.4276 40.1581 30.4051C41.7983 30.192 43.4306 29.9248 45.0604 29.6454ZM22.4016 32.4223C22.7566 31.3227 23.6246 30.3637 24.7412 30.0084C24.8944 30.4819 25.2691 30.8622 25.7478 31.0114C26.8002 31.3676 27.9314 31.2246 29.023 31.2565C29.5595 32.0454 29.8392 33.039 29.6376 33.9851C29.3537 35.6633 27.7594 36.9844 26.0569 36.9827C24.8182 37.0431 23.5763 36.4248 22.8804 35.402C22.2822 34.5436 22.1196 33.4252 22.4016 32.4223ZM31.7771 31.183C33.5957 31.1011 35.4141 30.9709 37.2222 30.7518C37.8626 31.3995 38.2737 32.2895 38.2366 33.2088C38.2271 34.2902 37.6298 35.3207 36.7488 35.9365C35.9197 36.5264 34.8387 36.7592 33.8405 36.5401C32.5466 36.2857 31.4447 35.2604 31.1392 33.9754C31.0587 33.4002 31.0509 32.8034 31.2249 32.2437C31.3548 31.8643 31.5607 31.5183 31.7771 31.183Z" fill="white"/>
<path d="M20.4993 31.9057C20.6335 31.8386 20.7693 31.7739 20.906 31.7082C20.5987 32.45 20.5122 33.2581 20.553 34.053C20.023 33.4416 19.5283 32.8006 19.0712 32.1333C19.5585 32.1532 20.0439 32.0851 20.4993 31.9057Z" fill="#FAFCFB"/>
<path d="M16.6069 34.755C17.3088 34.3195 17.9684 33.8167 18.6755 33.3881C18.8426 33.6322 19.007 33.878 19.1585 34.1324C18.5206 34.5463 17.8965 34.9792 17.2586 35.3914C16.9575 35.5743 16.6242 35.7649 16.2572 35.7202C15.6056 35.6986 15.0844 35.0294 15.1848 34.3963C15.2567 34.0073 15.5345 33.6658 15.8963 33.5045C16.0365 33.7262 16.1984 33.9332 16.3335 34.1582C16.2071 34.3436 15.9422 34.5135 16.0582 34.7707C16.1976 34.9672 16.4425 34.8481 16.6069 34.755Z" fill="#FBFDFB"/>
<path d="M18.5657 35.489C18.8409 35.2327 19.1542 34.9249 19.5654 34.9715C20.1911 35.056 20.7018 35.6054 20.8005 36.2184C20.8325 36.5937 20.6014 36.9247 20.3201 37.1499C19.6978 37.7001 19.1222 38.3029 18.4783 38.829C18.3174 38.6651 18.1546 38.5038 17.9944 38.34C18.2904 37.9468 18.6903 37.6423 19.0556 37.3155C18.8755 37.0945 18.6843 36.8843 18.4895 36.678C18.1 36.973 17.7695 37.3362 17.3973 37.6508C17.2285 37.5007 17.0693 37.3412 16.9109 37.1808C16.9074 37.1499 16.9005 37.0859 16.8961 37.054C17.4395 36.5186 18.0229 36.0242 18.5657 35.489Z" fill="#FCFDFB"/>
<path d="M33.5748 37.9215C35.5533 38.1751 37.6291 37.0876 38.5136 35.3C39.0806 36.0641 39.8985 36.6315 40.8073 36.9162C40.8048 36.9343 40.7979 36.9714 40.7944 36.9895C37.7381 38.866 34.0423 39.687 30.4789 39.2325C29.1295 39.0635 27.7957 38.7308 26.5382 38.2115C27.9992 37.9208 29.2828 36.9248 29.9605 35.6071C30.7091 36.8904 32.094 37.7725 33.5748 37.9215Z" fill="white"/>
<path d="M19.3776 35.8149C19.7073 35.7933 20.0872 36.1005 19.9549 36.4513C19.8389 36.5886 19.6961 36.7007 19.5601 36.8178C19.3584 36.6238 19.1628 36.4239 18.9785 36.2133C19.1109 36.0798 19.2439 35.947 19.3776 35.8149Z" fill="#020304"/>
<path d="M21.6357 36.5617C21.8399 36.6964 22.0339 36.8463 22.2312 36.992C21.9716 37.5966 21.7258 38.208 21.4445 38.803C21.4349 38.8589 21.4141 38.9702 21.4037 39.0255C21.956 38.5452 22.5349 38.0975 23.101 37.6335C23.288 37.7878 23.481 37.9345 23.6783 38.076C22.6952 38.9031 21.6824 39.6954 20.6914 40.5147C20.5044 40.3733 20.3157 40.2353 20.1253 40.099C20.6204 38.916 21.1388 37.744 21.6357 36.5617Z" fill="#FBFDFB"/>
<path d="M39.7019 39.0894C40.3925 38.7046 41.0633 38.2864 41.7378 37.8752C41.877 38.0908 42.0103 38.3107 42.1298 38.539C41.9109 38.6719 41.6814 38.7875 41.4728 38.9359C41.4919 39.0489 41.5534 39.1472 41.6114 39.2455C42.0494 39.9708 42.5011 40.6891 42.9244 41.4248C42.9442 41.4386 42.985 41.4662 43.005 41.4801C42.7848 41.6078 42.5689 41.7426 42.3576 41.8844C41.7787 41.0739 41.3294 40.1788 40.7799 39.3483C40.5453 39.4844 40.3159 39.6294 40.0736 39.7519C39.9495 39.53 39.824 39.3101 39.7019 39.0894Z" fill="#FBFDF9"/>
<path d="M24.1985 38.7056C24.8979 38.5003 25.7556 38.9417 25.9296 39.6628C25.9998 40.044 25.7678 40.3786 25.6076 40.7037C25.2795 41.3667 24.9307 42.0178 24.5932 42.676C24.3664 42.5768 24.1474 42.4621 23.9311 42.3438C24.1484 41.904 24.3742 41.4694 24.5941 41.0313C24.3379 40.9019 24.092 40.7457 23.8169 40.6587C23.6134 41.0847 23.3746 41.4937 23.178 41.9238C22.9418 41.8583 22.7236 41.7455 22.5039 41.6418C22.5202 41.4435 22.6086 41.2641 22.702 41.0925C23.0016 40.5 23.3192 39.9171 23.6108 39.3203C23.7294 39.0565 23.9078 38.7961 24.1985 38.7056Z" fill="#FBFDFA"/>
<path d="M24.3924 39.5422C24.4417 39.523 24.5386 39.4861 24.5871 39.4672C24.8182 39.5155 25.1575 39.6181 25.1532 39.9077C25.097 40.0914 24.993 40.2561 24.903 40.4251C24.6468 40.3001 24.3906 40.1752 24.1404 40.0381C24.2208 39.871 24.3048 39.7057 24.3924 39.5422Z" fill="#020304"/>
<path d="M37.0499 40.0276C37.6611 39.8595 38.267 39.3764 38.9222 39.6189C39.5522 39.7991 39.9106 40.5899 39.6102 41.1755C39.4198 41.5575 39.0398 41.7886 38.6487 41.9249C38.8114 42.3561 38.9896 42.7819 39.1351 43.2202C38.924 43.3125 38.7092 43.3945 38.5006 43.4901C38.4486 43.4919 38.3968 43.4936 38.3457 43.4962C37.9995 42.6174 37.6696 41.7326 37.3278 40.8521C37.223 40.5813 37.0915 40.3174 37.0499 40.0276Z" fill="#FCFEFC"/>
<path d="M27.0686 39.8215C27.4797 39.6999 27.9366 39.7872 28.2925 40.0198C28.6751 40.3174 28.7495 40.8641 28.6111 41.3048C28.3852 41.247 28.1611 41.1841 27.9412 41.1099C27.9178 40.9252 27.9576 40.6649 27.7534 40.5675C27.6295 40.4778 27.473 40.5054 27.3319 40.4959C27.2886 40.6002 27.2462 40.7062 27.2046 40.8124C27.5932 41.1565 28.1203 41.3919 28.3185 41.9085C28.5384 42.5734 28.0607 43.3521 27.3725 43.4832C27.2711 43.4808 27.1717 43.4797 27.0721 43.4797C26.7164 43.3911 26.3182 43.2659 26.1259 42.9261C25.9209 42.5968 25.9814 42.1906 26.0359 41.8276C26.2896 41.8819 26.544 41.9387 26.7881 42.0302C26.8053 42.2743 26.7767 42.539 26.9612 42.7322C27.0511 42.7322 27.2303 42.7333 27.3195 42.7333C27.4364 42.571 27.581 42.3883 27.5532 42.177C27.2788 41.8062 26.7855 41.6596 26.5509 41.2524C26.339 40.7458 26.5468 40.0526 27.0686 39.8215Z" fill="#FAFCF9"/>
<path d="M35.6365 40.263C35.9109 40.2052 36.1853 40.1459 36.4631 40.1069C36.7149 41.3194 36.9279 42.5397 37.1859 43.7514C36.9601 43.8048 36.7333 43.8531 36.5039 43.8894C36.4762 43.9066 36.4198 43.9413 36.3922 43.9594C36.2796 43.6557 36.2381 43.3342 36.1724 43.0201C35.994 42.1008 35.8114 41.1832 35.6365 40.263Z" fill="#FBFEFA"/>
<path d="M38.0972 40.5123C38.3215 40.4201 38.5595 40.3535 38.8044 40.4054C38.9004 40.577 38.9731 40.7797 38.8856 40.9718C38.7395 41.1141 38.5361 41.1703 38.3438 41.2212C38.2599 40.9848 38.17 40.7511 38.0972 40.5123Z" fill="#020204"/>
<path d="M29.6245 40.9193C30.0262 40.2941 31.044 40.2079 31.5556 40.7486C31.7115 40.8986 31.7833 41.1073 31.8714 41.2998C31.8706 41.4956 31.8697 41.6922 31.8662 41.8897C31.6091 41.899 31.3521 41.875 31.0967 41.8491C31.0942 41.7172 31.0907 41.5851 31.0914 41.455C30.9226 41.2722 30.663 41.166 30.4241 41.2757C30.212 41.4257 30.2492 41.7094 30.2008 41.9337C30.1636 42.3002 30.0736 42.6615 30.077 43.0332C30.109 43.0806 30.1748 43.1755 30.2068 43.2229C30.4041 43.3385 30.6239 43.3126 30.824 43.2169C30.8794 43.0858 30.9347 42.9556 30.9892 42.8254C31.2429 42.853 31.4956 42.8926 31.75 42.9204C31.7491 43.299 31.622 43.7274 31.2645 43.918C30.7079 44.2181 29.9066 44.1715 29.5049 43.6377C29.1813 43.2835 29.2591 42.7719 29.3405 42.3417C29.4436 41.8697 29.4384 41.3686 29.6245 40.9193Z" fill="#FCFEFD"/>
<path d="M32.4704 40.5666C32.9559 40.4985 33.4466 40.464 33.9374 40.464C34.1876 40.4554 34.4134 40.5744 34.629 40.6882C34.983 41.1205 35.0479 41.7569 34.7804 42.2485C34.6939 42.4199 34.5363 42.5424 34.4455 42.7105C34.6506 43.1902 34.9639 43.6171 35.2028 44.0826C34.925 44.0869 34.6489 44.1129 34.3728 44.131C34.0629 43.6679 33.8161 43.1643 33.4726 42.7252C33.477 43.2186 33.5626 43.7066 33.573 44.2007C33.3107 44.2231 33.0502 44.2594 32.7871 44.268C32.7542 44.0039 32.7456 43.7376 32.7144 43.4737C32.6624 42.8407 32.6044 42.2076 32.5473 41.5747C32.5086 41.2393 32.4929 40.903 32.4704 40.5666Z" fill="#FDFEFC"/>
<path d="M33.3515 41.2402C33.6199 41.1593 33.8951 41.2065 34.1262 41.3609C34.1572 41.4642 34.1901 41.5696 34.2231 41.6739C34.1572 41.7973 34.1062 41.9454 33.9747 42.0163C33.7981 42.068 33.6163 42.0974 33.4346 42.1267C33.3749 41.8343 33.3541 41.5377 33.3515 41.2402Z" fill="#010204"/>
</g>
<defs>
<clipPath id="clip0_39_223">
<rect width="56" height="47" fill="white"/>
</clipPath>
</defs>
</svg>
