<svg width="43" height="40" viewBox="0 0 43 40" fill="none" xmlns="http://www.w3.org/2000/svg">
<path fill-rule="evenodd" clip-rule="evenodd" d="M40.8737 11.2987H35.4512L32.5403 1.06969C32.1156 0.178123 31.0609 -0.181877 30.1834 0.265311L29.9837 0.366561C29.1091 0.816561 28.7462 1.90219 29.1709 2.79375L31.255 11.2959H12.5406L14.7006 2.805C15.1337 1.92187 14.7766 0.830623 13.9103 0.372186L13.7134 0.270936C12.8416 -0.184689 11.7784 0.164061 11.3453 1.05L8.3275 11.2959H3.01187C1.88687 11.2959 0.972809 12.1453 0.972809 13.1859C0.972809 13.1859 1.88406 16.6172 3.01187 16.6172H4.80062L6.06343 35.3962C6.06343 35.3962 6.20968 39.0778 12.0062 39.0778H31.7528C37.7856 39.0778 37.7012 35.3203 37.7012 35.3203L38.7222 16.62H40.8766C42.0016 16.62 42.9156 13.1887 42.9156 13.1887C42.9128 12.1481 41.9987 11.2987 40.8737 11.2987ZM9.33718 16.7747H6.35031V13.7878H9.33718V16.7747ZM15.0494 32.8369C15.0494 33.8212 14.3434 34.6172 13.4772 34.6172H13.4125C12.5378 34.6172 11.8347 33.8212 11.8347 32.8369V20.6616C11.8347 19.6772 12.5378 18.8841 13.4125 18.8841H13.4772C14.3434 18.8841 15.0494 19.6772 15.0494 20.6616V32.8369ZM23.4812 32.2884C23.4812 33.2278 22.8147 33.99 21.9934 33.99H21.9344C21.1103 33.99 20.4466 33.2278 20.4466 32.2884V20.76C20.4466 19.8206 21.1103 19.0612 21.9344 19.0612H21.9934C22.8147 19.0612 23.4812 19.8234 23.4812 20.76V32.2884ZM31.8287 32.5472C31.8287 33.4978 31.1397 34.2656 30.2931 34.2656H30.2312C29.3819 34.2656 28.6984 33.4978 28.6984 32.5472V20.8584C28.6984 19.9078 29.3819 19.14 30.2312 19.14H30.2931C31.1397 19.14 31.8287 19.9078 31.8287 20.8584V32.5472ZM37.4622 16.8619H34.3853V13.785H37.4622V16.8619Z" fill="#638C47"/>
</svg>
