<svg width="28" height="28" viewBox="0 0 28 28" fill="none" xmlns="http://www.w3.org/2000/svg">
<g clip-path="url(#clip0_6_39)">
<path fill-rule="evenodd" clip-rule="evenodd" d="M8.45842 2.7858C9.97359 2.44908 11.8117 2.33334 14 2.33334C16.1883 2.33334 18.0264 2.44908 19.5416 2.7858C21.07 3.12548 22.3403 3.70534 23.3175 4.68252C24.2947 5.6597 24.8745 6.93003 25.2142 8.45843C25.5509 9.97359 25.6667 11.8117 25.6667 14C25.6667 16.1883 25.5509 18.0264 25.2142 19.5416C24.8745 21.07 24.2947 22.3403 23.3175 23.3175C22.3403 24.2947 21.07 24.8745 19.5416 25.2142C18.0264 25.5509 16.1883 25.6667 14 25.6667C11.8117 25.6667 9.97359 25.5509 8.45842 25.2142C6.93003 24.8745 5.6597 24.2947 4.68252 23.3175C3.70534 22.3403 3.12548 21.07 2.7858 19.5416C2.44908 18.0264 2.33334 16.1883 2.33334 14C2.33334 11.8117 2.44908 9.97359 2.7858 8.45843C3.12548 6.93003 3.70534 5.6597 4.68252 4.68252C5.6597 3.70534 6.93003 3.12548 8.45842 2.7858ZM10.5 13.4167C10.5 11.8059 11.8059 10.5 13.4167 10.5C15.0275 10.5 16.3333 11.8059 16.3333 13.4167C16.3333 15.0275 15.0275 16.3333 13.4167 16.3333C11.8059 16.3333 10.5 15.0275 10.5 13.4167ZM13.4167 8.16668C10.5172 8.16668 8.16668 10.5172 8.16668 13.4167C8.16668 16.3162 10.5172 18.6667 13.4167 18.6667C14.4439 18.6667 15.4023 18.3716 16.2117 17.8617L17.8417 19.4916C18.2973 19.9472 19.036 19.9472 19.4916 19.4916C19.9472 19.036 19.9472 18.2973 19.4916 17.8417L17.8617 16.2117C18.3716 15.4023 18.6667 14.4439 18.6667 13.4167C18.6667 10.5172 16.3162 8.16668 13.4167 8.16668Z" fill="#999999"/>
</g>
<defs>
<clipPath id="clip0_6_39">
<rect width="28" height="28" fill="white"/>
</clipPath>
</defs>
</svg>
