<svg width="33" height="35" viewBox="0 0 33 35" fill="none" xmlns="http://www.w3.org/2000/svg">
<path fill-rule="evenodd" clip-rule="evenodd" d="M8.78136 1.07918C10.8918 0.586123 13.452 0.416656 16.5 0.416656C19.548 0.416656 22.1082 0.586123 24.2186 1.07918C26.3475 1.57656 28.1168 2.42566 29.4779 3.85652C30.839 5.28739 31.6466 7.14752 32.1198 9.38553C32.5888 11.6042 32.75 14.2957 32.75 17.5C32.75 20.7043 32.5888 23.3958 32.1198 25.6144C31.6466 27.8525 30.839 29.7125 29.4779 31.1434C28.1168 32.5743 26.3475 33.4234 24.2186 33.9208C22.1082 34.4139 19.548 34.5833 16.5 34.5833C13.452 34.5833 10.8918 34.4139 8.78136 33.9208C6.65253 33.4234 4.88313 32.5743 3.52207 31.1434C2.161 29.7125 1.35333 27.8525 0.880207 25.6144C0.4112 23.3958 0.25 20.7043 0.25 17.5C0.25 14.2957 0.4112 11.6042 0.880207 9.38553C1.35333 7.14752 2.161 5.28739 3.52207 3.85652C4.88313 2.42566 6.65253 1.57656 8.78136 1.07918ZM16.5 7.24999C12.9101 7.24999 10 10.3094 10 14.0833C10 17.8572 12.9101 20.9167 16.5 20.9167C20.0898 20.9167 23 17.8572 23 14.0833C23 10.3094 20.0898 7.24999 16.5 7.24999ZM26.8634 26.5442C27.4367 27.5271 27.2339 28.8262 26.31 29.4472C25.4698 30.012 24.4882 30.3578 23.5133 30.5855C21.7523 30.9968 19.4736 31.1667 16.4997 31.1667C13.5259 31.1667 11.2471 30.9968 9.48619 30.5855C8.52963 30.362 7.56583 30.0253 6.73588 29.4788C5.79526 28.8595 5.5885 27.5426 6.17595 26.5526C6.85242 25.4126 7.78473 24.517 9.03933 23.8796C10.9429 22.9127 13.438 22.625 16.4993 22.625C19.5503 22.625 22.0427 22.8894 23.9436 23.8289C25.2306 24.4649 26.1804 25.3735 26.8634 26.5442Z" fill="white" fill-opacity="0.81"/>
</svg>
